<?xml version="1.0" standalone="no"?><!DOCTYPE svg PUBLIC "-//W3C//DTD SVG 1.1//EN" "http://www.w3.org/Graphics/SVG/1.1/DTD/svg11.dtd"><svg t="1707893839330" class="icon" viewBox="0 0 1024 1024" version="1.1" xmlns="http://www.w3.org/2000/svg" p-id="4201" xmlns:xlink="http://www.w3.org/1999/xlink" width="200" height="200"><path d="M923.826087 0a100.173913 100.173913 0 0 1 100.173913 100.173913v823.652174a100.173913 100.173913 0 0 1-100.173913 100.173913H100.173913a100.173913 100.173913 0 0 1-100.173913-100.173913V100.173913a100.173913 100.173913 0 0 1 100.173913-100.173913h823.652174zM654.224696 222.608696H278.26087a33.391304 33.391304 0 0 0-33.391305 33.391304v512a33.391304 33.391304 0 0 0 33.391305 33.391304h467.47826a33.391304 33.391304 0 0 0 33.391305-33.391304V350.753391L654.224696 222.608696zM589.913043 267.130435v144.695652h144.695653v333.913043l-0.077913 1.302261A11.130435 11.130435 0 0 1 723.478261 756.869565H300.521739l-1.302261-0.077913A11.130435 11.130435 0 0 1 289.391304 745.73913V278.26087l0.077913-1.302261A11.130435 11.130435 0 0 1 300.521739 267.130435h289.391304z m44.52174 345.043478H389.565217a11.130435 11.130435 0 0 0-11.130434 11.130435v22.260869a11.130435 11.130435 0 0 0 11.130434 11.130435h244.869566a11.130435 11.130435 0 0 0 11.130434-11.130435v-22.260869a11.130435 11.130435 0 0 0-11.130434-11.130435z m0-133.565217H389.565217a11.130435 11.130435 0 0 0-11.130434 11.130434v22.26087a11.130435 11.130435 0 0 0 11.130434 11.130435h244.869566a11.130435 11.130435 0 0 0 11.130434-11.130435v-22.26087a11.130435 11.130435 0 0 0-11.130434-11.130434z m0-208.918261L729.088 367.304348H634.434783v-97.613913z" fill="#FEBD2B" p-id="4202"></path></svg>