<?xml version="1.0" encoding="UTF-8"?> <svg xmlns="http://www.w3.org/2000/svg" viewBox="0 0 300 61.63"><defs><style>.cls-1{fill:#00274c;}.cls-2{fill:#ffcb05;}</style></defs><g id="Layer_1"><path class="cls-2" d="M42.24,50.16L24.91,26.49v17.22h6.89v17H-.05v-17H6.41V17.24H-.05V.24H24.97l17.26,23.84L59.51,.24h25.01V17.24h-6.45v26.47h6.45v17h-31.85v-17h6.88V26.49l-17.31,23.67h0Zm0,0"></path></g><g id="Layer_2"><g><path class="cls-1" d="M101.53,.24h.88V60.71h-.88V.24h0Zm0,0"></path><path class="cls-1" d="M133.45,35.68c0-2.94-1.76-3.69-4.37-3.69h-3.7v29.14h-5.54V.49h10.33c5.29,0,8.57,.92,8.57,6.97v15.37c0,4.7-1.76,6.3-6.05,6.55v.17c3.95,.25,6.3,1.43,6.3,5.63v25.95h-5.54v-25.45Zm-4.37-8.4c2.6,0,4.12-.76,4.12-4.37V9.31c0-3.53-1.85-4.12-4.7-4.12h-3.11V27.28h3.7Z"></path><path class="cls-1" d="M146.64,10.23C146.64,4.27,148.91-.01,156.38-.01s9.74,4.28,9.74,10.24V51.39c0,5.96-2.27,10.25-9.74,10.25s-9.74-4.28-9.74-10.25V10.23Zm5.54,40.98c0,3.36,.67,5.71,4.2,5.71s4.2-2.35,4.2-5.71V10.4c0-3.36-.67-5.71-4.2-5.71s-4.2,2.35-4.2,5.71V51.22Z"></path><path class="cls-1" d="M173.52,.49h10.33c5.29,0,8.57,.92,8.57,6.97v15.37c0,4.7-1.76,6.38-6.05,6.55v.17c3.86,.17,6.3,1.43,6.3,5.63v18.98c0,6.05-3.28,6.97-8.82,6.97h-10.33V.49Zm9.24,26.79c2.6,0,4.12-.76,4.12-4.37V9.31c0-3.53-1.85-4.12-4.7-4.12h-3.11V27.28h3.7Zm-.34,29.14c2.86,0,4.7-.59,4.7-4.11v-16.63c0-2.94-1.76-3.69-4.37-3.69h-3.7v24.44h3.36Z"></path><path class="cls-1" d="M200.31,10.23C200.31,4.27,202.57-.01,210.05-.01s9.74,4.28,9.74,10.24V51.39c0,5.96-2.27,10.25-9.74,10.25s-9.74-4.28-9.74-10.25V10.23Zm5.54,40.98c0,3.36,.67,5.71,4.2,5.71s4.2-2.35,4.2-5.71V10.4c0-3.36-.67-5.71-4.2-5.71s-4.2,2.35-4.2,5.71V51.22Z"></path><path class="cls-1" d="M230.54,5.2h-6.21V.49h17.97V5.2h-6.21V61.13h-5.54V5.2Z"></path><path class="cls-1" d="M247.34,.49h5.54V61.13h-5.54V.49Z"></path><path class="cls-1" d="M272.03,8.56c0-2.6-.92-3.86-3.11-3.86s-3.11,1.26-3.11,3.86V53.07c0,2.6,.92,3.86,3.11,3.86s3.11-1.26,3.11-3.86v-8.48h5.54v8.65c0,5.12-2.85,8.4-8.65,8.4s-8.65-3.28-8.65-8.4V8.39C260.28,3.26,263.13-.01,268.92-.01s8.65,3.27,8.65,8.4v7.98h-5.54v-7.81Z"></path><path class="cls-1" d="M294.29,8.81c0-2.35-.59-4.12-3.19-4.12s-3.19,1.76-3.19,4.12v6.38c0,1.93,.34,3.86,1.26,5.46l8.82,15.12c1.26,2.1,2.02,4.7,2.02,7.39v9.57c0,5.71-3.36,8.9-8.9,8.9-6.13,0-9.07-2.77-9.07-8.9v-8.31h5.54v7.98c0,2.85,1.09,4.54,3.53,4.54,2.27,0,3.36-1.68,3.36-4.54v-8.48c0-2.1-.42-3.7-1.6-5.8l-8.15-14.19c-1.51-2.6-2.35-4.62-2.35-7.73v-7.3C282.36,2.93,285.47-.01,291.1-.01c6.21,0,8.73,2.94,8.73,8.48v7.73h-5.54v-7.39Z"></path></g></g></svg> 